<svg width="371" height="418" viewBox="0 0 371 418" fill="none" xmlns="http://www.w3.org/2000/svg">
<metadata><?xpacket begin="﻿" id="W5M0MpCehiHzreSzNTczkc9d"?>
<x:xmpmeta xmlns:x="adobe:ns:meta/" x:xmptk="Adobe XMP Core 8.0-c001 1.000000, 0000/00/00-00:00:00        ">
   <rdf:RDF xmlns:rdf="http://www.w3.org/1999/02/22-rdf-syntax-ns#">
      <rdf:Description rdf:about=""
            xmlns:dc="http://purl.org/dc/elements/1.1/"
            xmlns:tiff="http://ns.adobe.com/tiff/1.0/">
         <dc:modified>2025-01-07T03:13:40.335Z</dc:modified>
         <dc:format>image/svg+xml</dc:format>
         <tiff:ImageLength>418</tiff:ImageLength>
         <tiff:ImageWidth>371</tiff:ImageWidth>
      </rdf:Description>
   </rdf:RDF>
</x:xmpmeta>
                                                                                                    
                                                                                                    
                                                                                                    
                                                                                                    
                                                                                                    
                                                                                                    
                                                                                                    
                                                                                                    
                                                                                                    
                                                                                                    
                                                                                                    
                                                                                                    
                                                                                                    
                                                                                                    
                                                                                                    
                                                                                                    
                                                                                                    
                                                                                                    
                                                                            
<?xpacket end="w"?></metadata>
<g clip-path="url(#clip0_776_1458)">
<path d="M261.164 190.042C269.861 188.256 346.779 153.009 353.64 149.046C369.317 139.994 374.684 119.951 365.633 104.281C356.581 88.6112 336.538 83.2373 320.868 92.2889C314 96.2516 245.021 145.243 239.125 151.875C232.368 159.481 231.2 170.354 236.199 179.009C241.197 187.665 251.201 192.093 261.164 190.042Z" fill="#FFC220"/>
<path d="M353.64 268.08C346.772 264.117 269.854 228.87 261.164 227.083C251.201 225.032 241.197 229.454 236.199 238.116C231.2 246.771 232.368 257.651 239.125 265.25C245.021 271.882 314.007 320.874 320.868 324.837C336.545 333.888 356.588 328.514 365.633 312.844C374.684 297.167 369.311 277.124 353.64 268.08Z" fill="#FFC220"/>
<path d="M185.017 267.663C175.02 267.663 166.184 274.115 162.979 283.764C160.184 292.19 152.245 376.422 152.245 384.347C152.245 402.444 166.914 417.119 185.017 417.119C203.121 417.119 217.79 402.451 217.79 384.347C217.79 376.422 209.85 292.183 207.056 283.764C203.851 274.108 195.014 267.663 185.017 267.663Z" fill="#FFC220"/>
<path d="M108.872 227.084C100.182 228.871 23.2572 264.118 16.3955 268.08C0.718485 277.132 -4.64854 297.175 4.4031 312.845C13.4547 328.522 33.4977 333.889 49.1677 324.837C56.0364 320.875 125.015 271.883 130.911 265.251C137.668 257.645 138.836 246.772 133.837 238.117C128.839 229.461 118.835 225.033 108.872 227.084Z" fill="#FFC220"/>
<path d="M49.1662 92.2889C33.4892 83.2373 13.4463 88.6112 4.40158 104.281C-4.65006 119.958 0.723919 140.001 16.394 149.046C23.2626 153.009 100.181 188.256 108.871 190.042C118.833 192.093 128.837 187.672 133.836 179.009C138.834 170.354 137.667 159.474 130.909 151.875C125.014 145.243 56.0349 96.2516 49.1662 92.2889Z" fill="#FFC220"/>
<path d="M185.017 0C166.921 0 152.245 14.6689 152.245 32.7722C152.245 40.6976 160.184 124.936 162.979 133.362C166.184 143.019 175.02 149.463 185.017 149.463C195.014 149.463 203.851 143.012 207.056 133.362C209.85 124.936 217.79 40.7046 217.79 32.7722C217.79 14.6759 203.121 0 185.017 0Z" fill="#FFC220"/>
</g>
<defs>
<clipPath id="clip0_776_1458">
<rect width="370.033" height="418" fill="white"/>
</clipPath>
</defs>
</svg>
